<?xml version="1.0" ?><!-- Created with Inkscape (http://www.inkscape.org/) --><!DOCTYPE svg  PUBLIC '-//W3C//DTD SVG 1.1//EN'  'http://www.w3.org/Graphics/SVG/1.1/DTD/svg11.dtd' [
	<!ENTITY stroke_color "#000000">
	<!ENTITY fill_color "#ffff00">
]><svg height="55" id="svg2" inkscape:version="0.48.1 r9760" sodipodi:docname="spacechecker.svg" version="1.1" viewBox="0 0 55 55" width="55" xml:space="preserve" xmlns="http://www.w3.org/2000/svg" xmlns:cc="http://creativecommons.org/ns#" xmlns:dc="http://purl.org/dc/elements/1.1/" xmlns:inkscape="http://www.inkscape.org/namespaces/inkscape" xmlns:rdf="http://www.w3.org/1999/02/22-rdf-syntax-ns#" xmlns:sodipodi="http://sodipodi.sourceforge.net/DTD/sodipodi-0.dtd" xmlns:svg="http://www.w3.org/2000/svg"><sodipodi:namedview bordercolor="#666666" borderopacity="1" gridtolerance="10" guidetolerance="10" id="namedview3088" inkscape:current-layer="g4382" inkscape:cx="1.8322659" inkscape:cy="22.976064" inkscape:pageopacity="0" inkscape:pageshadow="2" inkscape:window-height="742" inkscape:window-maximized="1" inkscape:window-width="1280" inkscape:window-x="0" inkscape:window-y="26" inkscape:zoom="6.53" objecttolerance="10" pagecolor="#ffffff" showgrid="false"/><metadata id="metadata25"><rdf:RDF><cc:Work rdf:about=""><dc:format>image/svg+xml</dc:format><dc:type rdf:resource="http://purl.org/dc/dcmitype/StillImage"/><dc:title/></cc:Work></rdf:RDF></metadata><defs id="defs33">
	
	
	

  
  

  
   
   
   
   

	

		
		
		
		
		
		
		
		
		
	</defs><g id="g4382" style="fill:&fill_color;;fill-opacity:0;stroke:&stroke_color;;stroke-opacity:1" transform="matrix(0.93729264,0,0,0.92365046,83.092295,-11.552145)"><g id="g4308" style="fill:#ffffff;fill-opacity:0;stroke:&stroke_color;;stroke-opacity:1" transform="translate(-80.093659,12.220029)">
			<g id="g4310" style="fill:#ffffff;fill-opacity:0;stroke:&stroke_color;;stroke-opacity:1">
				<path d="m 6.736,49.002 h 24.52 c 2.225,0 3.439,-1.447 3.439,-3.441 v -27.28 c 0,-1.73 -1.732,-3.441 -3.439,-3.441 h -4.389" id="path4312" inkscape:connector-curvature="0" style="fill:#ffffff;fill-opacity:0;stroke:&stroke_color;;stroke-width:3.50000000000000000;stroke-linecap:round;stroke-linejoin:round;stroke-opacity:1"/>
			</g>
		</g><g id="g4314" style="fill:#ffffff;fill-opacity:0;stroke:&stroke_color;;stroke-opacity:1" transform="translate(-80.093659,12.220029)">
			<g id="g4316" style="fill:#ffffff;fill-opacity:0;stroke:&stroke_color;;stroke-opacity:1">
				<path d="m 26.867,38.592 c 0,1.836 -1.345,3.201 -3.441,4.047 L 6.736,49.002 V 14.84 l 16.69,-8.599 c 2.228,-0.394 3.441,0.84 3.441,2.834 v 29.517 z" id="path4318" inkscape:connector-curvature="0" style="fill:#ffffff;fill-opacity:0;stroke:&stroke_color;;stroke-width:3.50000000000000000;stroke-linecap:round;stroke-linejoin:round;stroke-opacity:1"/>
			</g>
		</g><path d="m -70.669659,54.827029 c 0,0 -1.351,-0.543 -2.702,-0.543 -1.351,0 -2.703,0.543 -2.703,0.543" id="path4320" inkscape:connector-curvature="0" style="fill:&fill_color;;fill-opacity:0;stroke:&stroke_color;;stroke-width:2.25000000000000000;stroke-linecap:round;stroke-linejoin:round;stroke-opacity:1"/><path d="m -70.669659,44.226029 c 0,0 -1.239,-0.543 -2.815,-0.543 -1.577,0 -2.59,0.543 -2.59,0.543" id="path4322" inkscape:connector-curvature="0" style="fill:&fill_color;;fill-opacity:0;stroke:&stroke_color;;stroke-width:2.25000000000000000;stroke-linecap:round;stroke-linejoin:round;stroke-opacity:1"/><path d="m -70.669659,33.898029 c 0,0 -1.125,-0.544 -2.927,-0.544 -1.802,0 -2.478,0.544 -2.478,0.544" id="path4324" inkscape:connector-curvature="0" style="fill:&fill_color;;fill-opacity:0;stroke:&stroke_color;;stroke-width:2.25000000000000000;stroke-linecap:round;stroke-linejoin:round;stroke-opacity:1"/><line id="line4326" style="fill:&fill_color;;fill-opacity:0;stroke:&stroke_color;;stroke-width:2.25000000000000000;stroke-linecap:round;stroke-linejoin:round;stroke-opacity:1" x1="-66.884659" x2="-66.884659" y1="58.753029" y2="23.725029"/></g><g id="activity-browse" style="display:block;stroke:&stroke_color;;stroke-opacity:1" transform="matrix(0.48270731,0,0,0.43680957,54.352538,30.526716)"><g id="g7" style="display:inline;stroke:&stroke_color;;stroke-opacity:1" transform="translate(-128.87712,-22.838983)"><g id="g6167" style="stroke:&stroke_color;;stroke-opacity:1" transform="matrix(0.10822504,0,0,0.09945444,61.358446,34.085169)"><g id="g6651" style="stroke:&stroke_color;;stroke-opacity:1"><path d="m 7.8813553,48.68644 a 27.584746,27.584746 0 1 1 -55.1694913,0 27.584746,27.584746 0 1 1 55.1694913,0 z" id="path6649" inkscape:connector-curvature="0" style="color:#000000;fill:#999999;fill-opacity:1;stroke:&stroke_color;;stroke-width:1.65464817999999991;stroke-linecap:square;stroke-linejoin:miter;stroke-miterlimit:4;stroke-opacity:1;stroke-dasharray:none;stroke-dashoffset:0;marker:none;visibility:visible;display:inline;overflow:visible;enable-background:accumulate" transform="matrix(8.3764085,0,0,9.1150996,519.78133,-368.75859)"/><path d="M -0.94352875,28.463043 A 27.584745,27.584745 0 1 1 -47.288136,48.686438 l 27.584746,2e-6 z" id="path6617" inkscape:connector-curvature="0" style="color:#000000;fill:#808080;fill-opacity:1;stroke:&stroke_color;;stroke-width:1.65464817999999991;stroke-linecap:square;stroke-linejoin:miter;stroke-miterlimit:4;stroke-opacity:1;stroke-dasharray:none;stroke-dashoffset:0;marker:none;visibility:visible;display:inline;overflow:visible;enable-background:accumulate" transform="matrix(8.3764085,0,0,9.1150996,519.78133,-368.75859)"/><path d="M 7.8771928,48.20725 A 27.584745,27.584745 0 0 1 -25.496945,75.655921 L -19.70339,48.68644 z" id="path6619" inkscape:connector-curvature="0" style="color:#000000;fill:#666666;fill-opacity:1;stroke:&stroke_color;;stroke-width:1.65464817999999991;stroke-linecap:square;stroke-linejoin:miter;stroke-miterlimit:4;stroke-opacity:1;stroke-dasharray:none;stroke-dashoffset:0;marker:none;visibility:visible;display:inline;overflow:visible;enable-background:accumulate" transform="matrix(8.3764085,0,0,9.1150996,519.78133,-368.75859)"/></g><path d="m 7.8813553,48.68644 a 27.584746,27.584746 0 1 1 -55.1694913,0 27.584746,27.584746 0 1 1 55.1694913,0 z" id="path6107" inkscape:connector-curvature="0" style="color:#000000;fill:none;stroke:&stroke_color;;stroke-width:3.86084579999999988;stroke-linecap:square;stroke-linejoin:miter;stroke-miterlimit:4;stroke-opacity:1;stroke-dasharray:none;stroke-dashoffset:0;marker:none;visibility:visible;display:inline;overflow:visible;enable-background:accumulate" transform="matrix(8.3764085,0,0,9.1150996,519.78184,-368.75804)"/></g></g></g></svg>